<svg width="136" height="30" viewBox="0 0 136 30" fill="none" xmlns="http://www.w3.org/2000/svg">
<path d="M11.25 13.75L15 17.5L27.5 5" stroke="black" stroke-width="2" stroke-linecap="round" stroke-linejoin="round"/>
<path d="M26.25 15V23.75C26.25 24.413 25.9866 25.0489 25.5178 25.5178C25.0489 25.9866 24.413 26.25 23.75 26.25H6.25C5.58696 26.25 4.95107 25.9866 4.48223 25.5178C4.01339 25.0489 3.75 24.413 3.75 23.75V6.25C3.75 5.58696 4.01339 4.95107 4.48223 4.48223C4.95107 4.01339 5.58696 3.75 6.25 3.75H20" stroke="black" stroke-width="2" stroke-linecap="round" stroke-linejoin="round"/>
<path d="M38.36 23.5V21.004H43.04C43.92 21.004 44.616 20.788 45.128 20.356C45.64 19.924 45.896 19.34 45.896 18.604C45.896 17.804 45.608 17.18 45.032 16.732C44.472 16.268 43.68 16.044 42.656 16.06H38.36V13.852L41.264 13.9C42.784 13.9 44.104 14.076 45.224 14.428C46.344 14.764 47.208 15.292 47.816 16.012C48.424 16.732 48.728 17.66 48.728 18.796C48.728 19.788 48.504 20.636 48.056 21.34C47.608 22.044 46.976 22.58 46.16 22.948C45.344 23.316 44.376 23.5 43.256 23.5H38.36ZM36.992 23.5V6.7H39.728V23.5H36.992ZM38.288 16.18V13.756H42.776C43.576 13.756 44.2 13.548 44.648 13.132C45.112 12.7 45.344 12.108 45.344 11.356C45.344 10.588 45.08 9.996 44.552 9.58C44.04 9.164 43.32 8.964 42.392 8.98H38.288V6.724L42.536 6.676C43.688 6.676 44.68 6.86 45.512 7.228C46.36 7.58 47.016 8.108 47.48 8.812C47.944 9.5 48.176 10.364 48.176 11.404C48.176 12.284 47.904 13.076 47.36 13.78C46.832 14.468 46.072 15.012 45.08 15.412C44.104 15.812 42.952 16.012 41.624 16.012L38.288 16.18ZM59.2233 23.5L59.0793 21.292V11.5H61.7433V23.5H59.2233ZM50.9193 18.364V11.5H53.6073V17.644L50.9193 18.364ZM53.6073 17.644C53.6073 18.588 53.7193 19.324 53.9433 19.852C54.1673 20.38 54.4713 20.748 54.8553 20.956C55.2553 21.164 55.7113 21.268 56.2233 21.268C57.1353 21.284 57.8393 20.988 58.3353 20.38C58.8313 19.772 59.0793 18.9 59.0793 17.764H60.0873C60.0873 19.028 59.8953 20.116 59.5113 21.028C59.1433 21.924 58.6153 22.612 57.9273 23.092C57.2553 23.556 56.4473 23.788 55.5033 23.788C54.0473 23.788 52.9193 23.34 52.1193 22.444C51.3193 21.548 50.9193 20.188 50.9193 18.364L53.6073 17.644ZM69.0982 23.788C68.2982 23.788 67.5622 23.668 66.8902 23.428C66.2182 23.188 65.6422 22.852 65.1622 22.42C64.6822 21.972 64.3142 21.452 64.0582 20.86L66.3862 19.828C66.6262 20.276 66.9782 20.652 67.4422 20.956C67.9222 21.26 68.4502 21.412 69.0262 21.412C69.6502 21.412 70.1462 21.308 70.5142 21.1C70.8982 20.876 71.0902 20.572 71.0902 20.188C71.0902 19.82 70.9462 19.54 70.6582 19.348C70.3702 19.14 69.9622 18.972 69.4342 18.844L68.3062 18.532C67.1702 18.244 66.2822 17.788 65.6422 17.164C65.0022 16.524 64.6822 15.796 64.6822 14.98C64.6822 13.78 65.0662 12.852 65.8342 12.196C66.6182 11.54 67.7382 11.212 69.1942 11.212C69.9302 11.212 70.6022 11.324 71.2102 11.548C71.8342 11.756 72.3702 12.06 72.8182 12.46C73.2662 12.844 73.5782 13.3 73.7542 13.828L71.5222 14.836C71.3622 14.436 71.0582 14.132 70.6102 13.924C70.1622 13.7 69.6662 13.588 69.1222 13.588C68.5782 13.588 68.1542 13.708 67.8502 13.948C67.5462 14.172 67.3942 14.492 67.3942 14.908C67.3942 15.148 67.5302 15.372 67.8022 15.58C68.0742 15.772 68.4662 15.932 68.9782 16.06L70.3942 16.396C71.1782 16.588 71.8182 16.892 72.3142 17.308C72.8102 17.708 73.1782 18.164 73.4182 18.676C73.6582 19.172 73.7782 19.676 73.7782 20.188C73.7782 20.908 73.5702 21.54 73.1542 22.084C72.7542 22.628 72.2022 23.052 71.4982 23.356C70.7942 23.644 69.9942 23.788 69.0982 23.788ZM77.8059 28.588C77.4219 28.588 76.9899 28.516 76.5099 28.372C76.0459 28.228 75.5979 28.044 75.1659 27.82L76.1739 25.636C76.4779 25.78 76.7579 25.892 77.0139 25.972C77.2699 26.068 77.4779 26.116 77.6379 26.116C78.0219 26.116 78.3419 26.012 78.5979 25.804C78.8699 25.612 79.0859 25.324 79.2459 24.94L80.6619 21.628L84.7179 11.5H87.6459L82.0779 24.772C81.7419 25.54 81.3979 26.212 81.0459 26.788C80.7099 27.364 80.2859 27.804 79.7739 28.108C79.2619 28.428 78.6059 28.588 77.8059 28.588ZM79.9419 23.5L74.5659 11.5H77.4939L81.6699 21.604L82.5339 23.5H79.9419ZM100.819 23.5V20.908C101.603 20.908 102.339 20.764 103.027 20.476C103.715 20.172 104.315 19.756 104.827 19.228C105.339 18.7 105.739 18.084 106.027 17.38C106.315 16.676 106.459 15.916 106.459 15.1C106.459 14.284 106.315 13.524 106.027 12.82C105.739 12.116 105.339 11.5 104.827 10.972C104.315 10.444 103.715 10.036 103.027 9.748C102.339 9.444 101.603 9.292 100.819 9.292V6.7C102.467 6.7 103.923 7.06 105.187 7.78C106.467 8.484 107.467 9.468 108.187 10.732C108.923 11.996 109.291 13.452 109.291 15.1C109.291 16.732 108.923 18.18 108.187 19.444C107.467 20.708 106.467 21.7 105.187 22.42C103.923 23.14 102.467 23.5 100.819 23.5ZM97.3389 23.5V20.908H100.819V23.5H97.3389ZM95.5389 23.5V6.7H98.3229V23.5H95.5389ZM97.3389 9.292V6.7H100.819V9.292H97.3389ZM118.994 23.5L118.874 21.244V17.332C118.874 16.516 118.786 15.836 118.61 15.292C118.434 14.748 118.154 14.332 117.77 14.044C117.402 13.756 116.914 13.612 116.306 13.612C115.746 13.612 115.25 13.732 114.818 13.972C114.386 14.212 114.026 14.58 113.738 15.076L111.29 14.212C111.562 13.684 111.914 13.188 112.346 12.724C112.778 12.26 113.322 11.892 113.978 11.62C114.65 11.348 115.442 11.212 116.354 11.212C117.522 11.212 118.49 11.428 119.258 11.86C120.042 12.292 120.626 12.932 121.01 13.78C121.394 14.628 121.586 15.676 121.586 16.924L121.514 23.5H118.994ZM115.586 23.788C114.146 23.788 113.026 23.468 112.226 22.828C111.442 22.188 111.05 21.284 111.05 20.116C111.05 18.868 111.466 17.916 112.298 17.26C113.146 16.604 114.322 16.276 115.826 16.276H119.042V18.34H116.69C115.618 18.34 114.866 18.492 114.434 18.796C114.002 19.084 113.786 19.5 113.786 20.044C113.786 20.508 113.97 20.876 114.338 21.148C114.722 21.404 115.25 21.532 115.922 21.532C116.514 21.532 117.026 21.396 117.458 21.124C117.906 20.836 118.25 20.468 118.49 20.02C118.746 19.556 118.874 19.06 118.874 18.532H119.858C119.858 20.164 119.506 21.452 118.802 22.396C118.114 23.324 117.042 23.788 115.586 23.788ZM125.923 28.588C125.539 28.588 125.107 28.516 124.627 28.372C124.163 28.228 123.715 28.044 123.283 27.82L124.291 25.636C124.595 25.78 124.875 25.892 125.131 25.972C125.387 26.068 125.595 26.116 125.755 26.116C126.139 26.116 126.459 26.012 126.715 25.804C126.987 25.612 127.203 25.324 127.363 24.94L128.779 21.628L132.835 11.5H135.763L130.195 24.772C129.859 25.54 129.515 26.212 129.163 26.788C128.827 27.364 128.403 27.804 127.891 28.108C127.379 28.428 126.723 28.588 125.923 28.588ZM128.059 23.5L122.683 11.5H125.611L129.787 21.604L130.651 23.5H128.059Z" fill="black"/>
</svg>
