<svg width="250" height="40" viewBox="0 0 250 40" fill="none" xmlns="http://www.w3.org/2000/svg">
<rect x="0.5" y="0.5" width="249" height="39" rx="7.5" fill="black"/>
<rect x="0.5" y="0.5" width="249" height="39" rx="7.5" stroke="black"/>
<path d="M25.26 25.66V16.42H27.4V25.66H25.26ZM21.7 22.12V19.98H30.94V22.12H21.7ZM48.6223 27L43.2623 13H46.0023L51.5223 27H48.6223ZM37.5623 27L43.0823 13H45.8223L40.4623 27H37.5623ZM40.1623 23.92V21.5H48.9423V23.92H40.1623ZM59.7248 27L59.5848 25.14V13H62.2248V27H59.7248ZM56.5848 27.24C55.6648 27.24 54.8648 27.0267 54.1848 26.6C53.5182 26.1733 52.9982 25.5667 52.6248 24.78C52.2515 23.9933 52.0648 23.0667 52.0648 22C52.0648 20.92 52.2515 19.9933 52.6248 19.22C52.9982 18.4333 53.5182 17.8267 54.1848 17.4C54.8648 16.9733 55.6648 16.76 56.5848 16.76C57.4248 16.76 58.1315 16.9733 58.7048 17.4C59.2915 17.8267 59.7382 18.4333 60.0448 19.22C60.3515 19.9933 60.5048 20.92 60.5048 22C60.5048 23.0667 60.3515 23.9933 60.0448 24.78C59.7382 25.5667 59.2915 26.1733 58.7048 26.6C58.1315 27.0267 57.4248 27.24 56.5848 27.24ZM57.2648 24.82C57.7182 24.82 58.1182 24.7 58.4648 24.46C58.8248 24.22 59.1048 23.8867 59.3048 23.46C59.5048 23.0333 59.6048 22.5467 59.6048 22C59.6048 21.4533 59.5048 20.9667 59.3048 20.54C59.1048 20.1133 58.8248 19.7867 58.4648 19.56C58.1182 19.32 57.7115 19.2 57.2448 19.2C56.7648 19.2 56.3448 19.32 55.9848 19.56C55.6248 19.7867 55.3382 20.1133 55.1248 20.54C54.9115 20.9667 54.8048 21.4533 54.8048 22C54.8048 22.5467 54.9115 23.0333 55.1248 23.46C55.3382 23.8867 55.6248 24.22 55.9848 24.46C56.3582 24.7 56.7848 24.82 57.2648 24.82ZM71.6194 27L71.4794 25.14V13H74.1194V27H71.6194ZM68.4794 27.24C67.5594 27.24 66.7594 27.0267 66.0794 26.6C65.4127 26.1733 64.8927 25.5667 64.5194 24.78C64.146 23.9933 63.9594 23.0667 63.9594 22C63.9594 20.92 64.146 19.9933 64.5194 19.22C64.8927 18.4333 65.4127 17.8267 66.0794 17.4C66.7594 16.9733 67.5594 16.76 68.4794 16.76C69.3194 16.76 70.026 16.9733 70.5994 17.4C71.186 17.8267 71.6327 18.4333 71.9394 19.22C72.246 19.9933 72.3994 20.92 72.3994 22C72.3994 23.0667 72.246 23.9933 71.9394 24.78C71.6327 25.5667 71.186 26.1733 70.5994 26.6C70.026 27.0267 69.3194 27.24 68.4794 27.24ZM69.1594 24.82C69.6127 24.82 70.0127 24.7 70.3594 24.46C70.7194 24.22 70.9994 23.8867 71.1994 23.46C71.3994 23.0333 71.4994 22.5467 71.4994 22C71.4994 21.4533 71.3994 20.9667 71.1994 20.54C70.9994 20.1133 70.7194 19.7867 70.3594 19.56C70.0127 19.32 69.606 19.2 69.1394 19.2C68.6594 19.2 68.2394 19.32 67.8794 19.56C67.5194 19.7867 67.2327 20.1133 67.0194 20.54C66.806 20.9667 66.6994 21.4533 66.6994 22C66.6994 22.5467 66.806 23.0333 67.0194 23.46C67.2327 23.8867 67.5194 24.22 67.8794 24.46C68.2527 24.7 68.6794 24.82 69.1594 24.82ZM81.1595 27V17H83.6395L83.7995 18.84V27H81.1595ZM87.7795 27V21.88L90.4195 21.28V27H87.7795ZM87.7795 21.88C87.7795 21.2 87.6995 20.6733 87.5395 20.3C87.3929 19.9267 87.1795 19.66 86.8995 19.5C86.6195 19.3267 86.2929 19.24 85.9195 19.24C85.2395 19.2267 84.7129 19.4333 84.3395 19.86C83.9795 20.2867 83.7995 20.92 83.7995 21.76H82.9195C82.9195 20.6933 83.0729 19.7933 83.3795 19.06C83.6995 18.3133 84.1395 17.7467 84.6995 17.36C85.2595 16.96 85.9195 16.76 86.6795 16.76C87.8929 16.76 88.8195 17.1333 89.4595 17.88C90.1129 18.6133 90.4329 19.7467 90.4195 21.28L87.7795 21.88ZM97.0467 27.24C96.0601 27.24 95.1867 27.02 94.4267 26.58C93.6667 26.1267 93.0667 25.5067 92.6267 24.72C92.2001 23.9333 91.9867 23.0267 91.9867 22C91.9867 20.9733 92.2067 20.0667 92.6467 19.28C93.1001 18.4933 93.7134 17.88 94.4867 17.44C95.2734 16.9867 96.1734 16.76 97.1867 16.76C98.0534 16.76 98.8534 16.9933 99.5867 17.46C100.333 17.9133 100.933 18.5867 101.387 19.48C101.84 20.36 102.067 21.4333 102.067 22.7H99.3867C99.4001 21.82 99.3067 21.12 99.1067 20.6C98.9201 20.0667 98.6534 19.6867 98.3067 19.46C97.9601 19.22 97.5534 19.1 97.0867 19.1C96.5667 19.1 96.1267 19.2067 95.7667 19.42C95.4067 19.6333 95.1334 19.96 94.9467 20.4C94.7734 20.8267 94.6867 21.3867 94.6867 22.08C94.6867 22.68 94.8067 23.18 95.0467 23.58C95.2867 23.98 95.6067 24.2867 96.0067 24.5C96.4067 24.7 96.8467 24.8 97.3267 24.8C97.8467 24.8 98.2667 24.6867 98.5867 24.46C98.9201 24.2333 99.1734 23.94 99.3467 23.58L101.827 24.54C101.547 25.1 101.18 25.5867 100.727 26C100.287 26.4 99.7601 26.7067 99.1467 26.92C98.5334 27.1333 97.8334 27.24 97.0467 27.24ZM93.7067 22.7L93.7267 20.64H100.767V22.7H93.7067ZM112.531 27L115.851 17H118.531L115.131 27H112.531ZM105.891 27L109.091 17H111.391L108.231 27H105.891ZM105.631 27L102.231 17H104.911L108.091 27H105.631ZM112.531 27L109.411 17H111.691L114.871 27H112.531ZM125.016 27V13H127.756V27H125.016ZM126.776 27V24.5H133.916V27H126.776ZM135.538 27V17H138.178V27H135.538ZM136.858 15.38C136.458 15.38 136.105 15.2333 135.798 14.94C135.492 14.6333 135.338 14.2733 135.338 13.86C135.338 13.4467 135.492 13.0933 135.798 12.8C136.105 12.4933 136.458 12.34 136.858 12.34C137.272 12.34 137.625 12.4933 137.918 12.8C138.225 13.0933 138.378 13.4467 138.378 13.86C138.378 14.2733 138.225 14.6333 137.918 14.94C137.625 15.2333 137.272 15.38 136.858 15.38ZM144.353 27.24C143.713 27.24 143.113 27.1467 142.553 26.96C141.993 26.76 141.499 26.48 141.073 26.12C140.646 25.7467 140.313 25.2933 140.073 24.76L142.333 23.72C142.533 24.04 142.806 24.32 143.153 24.56C143.499 24.7867 143.899 24.9 144.353 24.9C144.793 24.9 145.133 24.84 145.373 24.72C145.613 24.5867 145.733 24.4 145.733 24.16C145.733 23.92 145.633 23.7467 145.433 23.64C145.246 23.52 144.986 23.42 144.653 23.34L143.733 23.1C142.773 22.8467 142.013 22.4467 141.453 21.9C140.906 21.34 140.633 20.7 140.633 19.98C140.633 18.9533 140.959 18.16 141.613 17.6C142.279 17.04 143.219 16.76 144.433 16.76C145.059 16.76 145.639 16.8533 146.173 17.04C146.719 17.2267 147.186 17.4867 147.573 17.82C147.959 18.1533 148.226 18.54 148.373 18.98L146.193 19.98C146.099 19.7133 145.873 19.5 145.513 19.34C145.153 19.1667 144.793 19.08 144.433 19.08C144.073 19.08 143.793 19.16 143.593 19.32C143.406 19.4667 143.313 19.6733 143.313 19.94C143.313 20.1133 143.406 20.26 143.593 20.38C143.779 20.4867 144.046 20.58 144.393 20.66L145.693 20.98C146.346 21.14 146.866 21.4 147.253 21.76C147.653 22.1067 147.939 22.5 148.113 22.94C148.299 23.3667 148.393 23.7867 148.393 24.2C148.393 24.8 148.213 25.3333 147.853 25.8C147.506 26.2533 147.026 26.6067 146.413 26.86C145.813 27.1133 145.126 27.24 144.353 27.24ZM154.049 27.24C152.942 27.24 152.102 26.9667 151.529 26.42C150.969 25.8733 150.689 25.0933 150.689 24.08V13.88H153.329V23.5C153.329 23.9267 153.422 24.2533 153.609 24.48C153.796 24.6933 154.069 24.8 154.429 24.8C154.562 24.8 154.709 24.7733 154.869 24.72C155.029 24.6533 155.196 24.56 155.369 24.44L156.289 26.42C155.969 26.66 155.609 26.8533 155.209 27C154.822 27.16 154.436 27.24 154.049 27.24ZM149.069 19.24V17H155.829V19.24H149.069Z" fill="white"/>
</svg>
